<svg width="853" height="470" viewBox="0 0 853 470" fill="none" xmlns="http://www.w3.org/2000/svg">
<g clip-path="url(#clip0_1_13)">
<path d="M317.852 322.987C331.221 322.987 342.059 312.139 342.059 298.757C342.059 285.375 331.221 274.527 317.852 274.527C304.483 274.527 293.645 285.375 293.645 298.757C293.645 312.139 304.483 322.987 317.852 322.987Z" fill="black"/>
<path d="M315.545 308.985L308.3 299.661L312.513 296.381L315.944 300.796L327.533 288.55L331.409 292.225L315.545 308.985Z" fill="white"/>
<path d="M780.421 76.9889H420.564V0H780.421V76.9889Z" fill="white"/>
<path d="M467.194 58.0519C477.985 58.0519 486.733 49.2957 486.733 38.4945C486.733 27.6932 477.985 18.937 467.194 18.937C456.403 18.937 447.655 27.6932 447.655 38.4945C447.655 49.2957 456.403 58.0519 467.194 58.0519Z" fill="black"/>
<path d="M512.319 25.4561C511.456 25.4561 510.628 25.7996 510.017 26.4109C509.406 27.0221 509.063 27.8512 509.063 28.7157C509.063 29.5802 509.406 30.4093 510.017 31.0206C510.628 31.6319 511.456 31.9753 512.319 31.9753H750.081C750.943 31.9732 751.769 31.6289 752.378 31.0179C752.987 30.4068 753.329 29.5789 753.329 28.7157C753.329 27.8526 752.987 27.0247 752.378 26.4136C751.769 25.8025 750.943 25.4582 750.081 25.4561H512.319Z" fill="#3F3D56"/>
<path d="M512.32 45.0136C511.456 45.0117 510.627 45.3534 510.015 45.9634C509.403 46.5734 509.058 47.4018 509.056 48.2663C509.054 49.1307 509.396 49.9605 510.005 50.5731C510.615 51.1857 511.442 51.5309 512.306 51.5327H662.621C663.049 51.5334 663.473 51.4496 663.869 51.2861C664.264 51.1227 664.624 50.8827 664.927 50.5799C665.23 50.2772 665.47 49.9176 665.634 49.5218C665.798 49.1259 665.883 48.7016 665.883 48.2731C665.883 47.8446 665.798 47.4203 665.634 47.0245C665.47 46.6287 665.23 46.2691 664.927 45.9663C664.624 45.6636 664.264 45.4236 663.869 45.2601C663.473 45.0966 663.049 45.0128 662.621 45.0136H512.32Z" fill="#3F3D56"/>
<path d="M780.421 76.9889H420.564V0H780.421V76.9889ZM426.058 71.4897H774.927V5.49921H426.058V71.4897Z" fill="#CCCCCC"/>
<path d="M780.421 173.225H420.564V96.2362H780.421V173.225Z" fill="white"/>
<path d="M467.194 154.288C477.985 154.288 486.733 145.532 486.733 134.731C486.733 123.929 477.985 115.173 467.194 115.173C456.403 115.173 447.655 123.929 447.655 134.731C447.655 145.532 456.403 154.288 467.194 154.288Z" fill="#E6E6E6"/>
<path d="M512.319 121.692C511.456 121.692 510.628 122.036 510.017 122.647C509.406 123.258 509.063 124.087 509.063 124.952C509.063 125.816 509.406 126.645 510.017 127.257C510.628 127.868 511.456 128.211 512.319 128.211H750.081C750.943 128.209 751.769 127.865 752.378 127.254C752.987 126.643 753.329 125.815 753.329 124.952C753.329 124.089 752.987 123.261 752.378 122.65C751.769 122.039 750.943 121.694 750.081 121.692H512.319Z" fill="#E6E6E6"/>
<path d="M512.32 141.25C511.456 141.248 510.627 141.59 510.015 142.2C509.403 142.81 509.058 143.638 509.056 144.502C509.054 145.367 509.396 146.197 510.005 146.809C510.615 147.422 511.442 147.767 512.306 147.769H662.621C663.049 147.77 663.473 147.686 663.869 147.522C664.264 147.359 664.624 147.119 664.927 146.816C665.23 146.513 665.47 146.154 665.634 145.758C665.798 145.362 665.883 144.938 665.883 144.509C665.883 144.081 665.798 143.656 665.634 143.261C665.47 142.865 665.23 142.505 664.927 142.203C664.624 141.9 664.264 141.66 663.869 141.496C663.473 141.333 663.049 141.249 662.621 141.25H512.32Z" fill="#E6E6E6"/>
<path d="M780.421 173.225H420.564V96.2362H780.421V173.225ZM426.058 167.726H774.927V101.735H426.058V167.726Z" fill="#E6E6E6"/>
<path d="M780.421 269.461H420.564V192.472H780.421V269.461Z" fill="white"/>
<path d="M467.194 250.524C477.985 250.524 486.733 241.768 486.733 230.967C486.733 220.166 477.985 211.409 467.194 211.409C456.403 211.409 447.655 220.166 447.655 230.967C447.655 241.768 456.403 250.524 467.194 250.524Z" fill="#E6E6E6"/>
<path d="M512.319 217.928C511.456 217.928 510.628 218.272 510.017 218.883C509.406 219.494 509.063 220.324 509.063 221.188C509.063 222.053 509.406 222.882 510.017 223.493C510.628 224.104 511.456 224.448 512.319 224.448H750.081C750.943 224.446 751.769 224.101 752.378 223.49C752.987 222.879 753.329 222.051 753.329 221.188C753.329 220.325 752.987 219.497 752.378 218.886C751.769 218.275 750.943 217.931 750.081 217.928H512.319Z" fill="#E6E6E6"/>
<path d="M512.32 237.486C511.456 237.484 510.627 237.826 510.015 238.436C509.403 239.046 509.058 239.874 509.056 240.739C509.054 241.603 509.396 242.433 510.005 243.045C510.615 243.658 511.442 244.003 512.306 244.005H662.621C663.049 244.006 663.473 243.922 663.869 243.758C664.264 243.595 664.624 243.355 664.927 243.052C665.23 242.749 665.47 242.39 665.634 241.994C665.798 241.598 665.883 241.174 665.883 240.745C665.883 240.317 665.798 239.893 665.634 239.497C665.47 239.101 665.23 238.741 664.927 238.439C664.624 238.136 664.264 237.896 663.869 237.732C663.473 237.569 663.049 237.485 662.621 237.486H512.32Z" fill="#E6E6E6"/>
<path d="M780.421 269.461H420.564V192.472H780.421V269.461ZM426.058 263.962H774.927V197.972H426.058V263.962Z" fill="#E6E6E6"/>
<path d="M183.827 287.727C183.007 286.672 182.428 285.449 182.13 284.146C181.833 282.842 181.825 281.489 182.106 280.182C182.388 278.875 182.952 277.646 183.76 276.58C184.567 275.515 185.599 274.64 186.781 274.017L184.872 253.204L197.226 248.958L199.508 278.389C200.422 280.446 200.551 282.767 199.87 284.912C199.188 287.058 197.744 288.878 195.812 290.03C193.879 291.181 191.591 291.582 189.382 291.158C187.174 290.733 185.197 289.513 183.827 287.727Z" fill="#FFB8B8"/>
<path d="M197.089 168.269C197.089 168.269 205.567 150.461 213.1 156.725C220.633 162.989 202.772 215.644 202.772 215.644L200.056 266.76L185.739 265.327L181.691 215.527L197.089 168.269Z" fill="#CCCCCC"/>
<path d="M83.3768 431.731L94.004 440.342L132.243 403.409L116.559 390.7L83.3768 431.731Z" fill="#FFB8B8"/>
<path d="M83.4745 426.061L104.404 443.02L104.405 443.02C107.942 445.887 110.197 450.042 110.673 454.572C111.149 459.103 109.808 463.637 106.945 467.178L106.594 467.612L72.3268 439.846L83.4745 426.061Z" fill="#2F2E41"/>
<path d="M231.075 455.634H244.747L251.252 402.845L231.072 402.845L231.075 455.634Z" fill="#FFB8B8"/>
<path d="M227.587 451.166L254.514 451.165H254.515C259.066 451.165 263.43 452.975 266.649 456.196C269.867 459.417 271.675 463.786 271.675 468.341V468.899L227.587 468.901L227.587 451.166Z" fill="#2F2E41"/>
<path d="M255.067 208.154C255.067 208.154 280.718 239.412 275.142 270.669C269.565 301.926 265.104 325.369 265.104 325.369L256.182 395.698C256.182 395.698 259.528 414.852 255.067 419.787C255.067 419.787 261.758 431.421 249.49 435.886C237.222 440.351 230.603 434.343 230.603 434.343C230.603 434.343 221.608 421.374 227.185 418.025L229.534 280.006L140.193 396.814C140.193 396.814 138.551 411.023 127.104 411.175L113.427 421.374L97.813 412.443L105.62 402.396C105.62 402.396 101.159 391.233 111.196 389L169.191 313.089L183.689 274.018C183.689 274.018 191.496 243.877 212.686 231.597V218.531L255.067 208.154Z" fill="#2F2E41"/>
<path d="M211.013 154.012C214.39 150.017 219.117 147.406 224.293 146.674C229.47 145.943 234.734 147.142 239.084 150.045L240.01 150.663C249.91 161.884 256.563 175.596 259.254 190.322L263.431 213.178L211.013 224.543L198.725 182.122C197.165 176.738 197.541 170.977 199.786 165.841C202.031 160.705 206.004 156.519 211.013 154.012V154.012Z" fill="#CCCCCC"/>
<path d="M297.133 292.586C295.679 292.111 294.348 291.322 293.232 290.276C292.117 289.23 291.243 287.951 290.675 286.531C290.106 285.111 289.855 283.582 289.94 282.055C290.025 280.527 290.444 279.036 291.167 277.687L276.046 259.164L285.051 247.221L306.037 273.68C308.22 275.045 309.827 277.165 310.552 279.637C311.278 282.109 311.072 284.762 309.975 287.092C308.877 289.423 306.964 291.269 304.597 292.282C302.23 293.294 299.574 293.403 297.133 292.586H297.133Z" fill="#FFB8B8"/>
<path d="M233.319 170.757C233.319 170.757 229.973 148.43 241.126 149.547C252.279 150.663 269.008 212.061 269.008 212.061L299.12 262.296L284.621 270.111L248.933 225.457L233.319 170.757Z" fill="#CCCCCC"/>
<path d="M253.742 138.116H200.633C199.541 138.115 198.494 137.68 197.721 136.907C196.949 136.134 196.514 135.086 196.513 133.992V111.079C196.513 102.936 199.745 95.1259 205.497 89.3678C211.25 83.6097 219.052 80.3748 227.188 80.3748C235.323 80.3748 243.125 83.6097 248.878 89.3678C254.631 95.1259 257.863 102.936 257.863 111.079V133.992C257.861 135.086 257.427 136.134 256.654 136.907C255.882 137.68 254.834 138.115 253.742 138.116Z" fill="#2F2E41"/>
<path d="M233.491 137.583C245.912 137.583 255.981 127.505 255.981 115.072C255.981 102.64 245.912 92.561 233.491 92.561C221.07 92.561 211.001 102.64 211.001 115.072C211.001 127.505 221.07 137.583 233.491 137.583Z" fill="#FFB8B8"/>
<path d="M265.119 113.37H236.817L236.526 108.703L235.075 113.37H230.717L230.142 104.121L227.266 113.37H218.833V112.912C218.833 99.5191 228.32 88.6236 239.981 88.6236H243.971C255.632 88.6236 265.119 99.5191 265.119 112.912V113.37Z" fill="#2F2E41"/>
<path d="M237.988 142.394C237.642 142.393 237.297 142.367 236.955 142.314L203.267 137.12V101.999C203.267 98.411 204.691 94.9701 207.225 92.4331C209.76 89.8961 213.198 88.4709 216.782 88.4709H240.351L239.433 89.4062C226.659 102.424 236.282 123.532 243.156 134.955C243.66 135.776 243.888 136.738 243.806 137.698C243.724 138.659 243.336 139.567 242.699 140.291C242.114 140.963 241.389 141.5 240.576 141.863C239.762 142.226 238.879 142.408 237.988 142.394Z" fill="#2F2E41"/>
<path d="M828.793 62.6912C842.162 62.6912 853 51.8431 853 38.4614C853 25.0796 842.162 14.2316 828.793 14.2316C815.424 14.2316 804.586 25.0796 804.586 38.4614C804.586 51.8431 815.424 62.6912 828.793 62.6912Z" fill="black"/>
<path d="M826.486 48.6891L819.241 39.3652L823.454 36.0849L826.885 40.4998L838.474 28.254L842.35 31.9293L826.486 48.6891Z" fill="white"/>
<path d="M349.784 470H0.915665C0.672816 470 0.439912 469.903 0.268192 469.732C0.0964709 469.56 0 469.327 0 469.083C0 468.84 0.0964709 468.607 0.268192 468.435C0.439912 468.263 0.672816 468.167 0.915665 468.167H349.784C350.027 468.167 350.26 468.263 350.432 468.435C350.603 468.607 350.7 468.84 350.7 469.083C350.7 469.327 350.603 469.56 350.432 469.732C350.26 469.903 350.027 470 349.784 470Z" fill="#CCCCCC"/>
</g>
<defs>
<clipPath id="clip0_1_13">
<rect width="853" height="470" fill="white"/>
</clipPath>
</defs>
</svg>
